<svg xmlns="http://www.w3.org/2000/svg" aria-label="Story Weaver" role="img" viewBox="0 0 800 200"><title>Story Weaver</title><defs><linearGradient id="h1" x1="0%" x2="100%" y1="0%" y2="100%"><stop offset="0%" stop-color="#6366F1"/><stop offset="50%" stop-color="#A855F7"/><stop offset="100%" stop-color="#EC4899"/></linearGradient><linearGradient id="h2" x1="0%" x2="100%" y1="0%" y2="0%"><stop offset="0%" stop-color="#6366F1"/><stop offset="50%" stop-color="#A855F7"/><stop offset="100%" stop-color="#EC4899"/></linearGradient></defs><g transform="translate(20 20) scale(0.625)"><rect width="256" height="256" fill="#0B0E2C" rx="56"/><g stroke="url(#h1)" stroke-linecap="round" stroke-width="3" opacity=".6"><path fill="none" d="M 70 30 Q 55 128 70 226"/><path fill="none" d="M 128 30 Q 128 128 128 226"/><path fill="none" d="M 186 30 Q 201 128 186 226"/><path fill="none" d="M 30 70 Q 128 55 226 70" opacity=".4"/><path fill="none" d="M 30 128 Q 128 128 226 128" opacity=".4"/></g><g fill="url(#h1)"><rect width="16" height="16" x="62" y="62" rx="4"/><rect width="16" height="16" x="120" y="62" rx="4"/><rect width="16" height="16" x="178" y="62" rx="4"/><rect width="16" height="16" x="62" y="120" rx="4"/><rect width="16" height="16" x="120" y="120" opacity=".7" rx="4"/><rect width="16" height="16" x="178" y="120" rx="4"/></g><g transform="translate(128 128)"><circle r="20" fill="url(#h1)" opacity=".2"/><circle r="10" fill="url(#h1)"/><circle r="4" fill="#FFF"/></g></g><g><text x="0" y="98" fill="url(#h2)" font-family="-apple-system, BlinkMacSystemFont, 'Segoe UI', Helvetica, Arial, sans-serif" font-size="72" font-weight="800" letter-spacing="-2" transform="translate(208 0)">Story Weaver</text><text x="2" y="140" fill="#0B0E2C" font-family="-apple-system, BlinkMacSystemFont, 'PingFang SC', 'Microsoft YaHei', 'Segoe UI', Helvetica, Arial, sans-serif" font-size="22" font-weight="600" letter-spacing="1" transform="translate(208 0)">AI 漫剧创作平台</text><text x="2" y="168" fill="#6B7280" font-family="-apple-system, BlinkMacSystemFont, 'Segoe UI', Helvetica, Arial, sans-serif" font-size="13" font-weight="500" letter-spacing="4" transform="translate(208 0)">NOVEL · TO · COMIC · DRAMA</text></g></svg>