<svg xmlns="http://www.w3.org/2000/svg" aria-label="Story Weaver" role="img" viewBox="0 0 1280 640"><title>Story Weaver · AI 漫剧创作平台</title><defs><linearGradient id="og1" x1="0%" x2="100%" y1="0%" y2="100%"><stop offset="0%" stop-color="#0B0E2C"/><stop offset="100%" stop-color="#1E1B4B"/></linearGradient><linearGradient id="og2" x1="0%" x2="100%" y1="0%" y2="100%"><stop offset="0%" stop-color="#6366F1"/><stop offset="50%" stop-color="#A855F7"/><stop offset="100%" stop-color="#EC4899"/></linearGradient><radialGradient id="og3" cx="80%" cy="30%" r="50%"><stop offset="0%" stop-color="#A855F7" stop-opacity=".3"/><stop offset="100%" stop-color="#6366F1" stop-opacity="0"/></radialGradient><linearGradient id="ogText" x1="0%" x2="100%" y1="0%" y2="0%"><stop offset="0%" stop-color="#FFF"/><stop offset="100%" stop-color="#E0E7FF"/></linearGradient></defs><rect width="1280" height="640" fill="url(#og1)"/><rect width="1280" height="640" fill="url(#og3)"/><g><text y="180" fill="#A5B4FC" font-family="-apple-system, BlinkMacSystemFont, 'Segoe UI', Helvetica, Arial, sans-serif" font-size="20" font-weight="600" letter-spacing="6" transform="translate(80 0)">v2.2.3 · OPEN SOURCE · MIT</text><text y="310" fill="url(#ogText)" font-family="-apple-system, BlinkMacSystemFont, 'Segoe UI', Helvetica, Arial, sans-serif" font-size="112" font-weight="800" letter-spacing="-4" transform="translate(80 0)">Story<tspan fill="#A5B4FC"> · </tspan>Weaver</text><text y="360" fill="#C5CAE9" font-family="-apple-system, BlinkMacSystemFont, 'PingFang SC', 'Microsoft YaHei', sans-serif" font-size="32" font-weight="600" letter-spacing="2" transform="translate(80 0)">AI 漫剧创作平台</text><text y="400" fill="#9CA3B8" font-family="-apple-system, BlinkMacSystemFont, 'Segoe UI', Helvetica, Arial, sans-serif" font-size="24" font-weight="500" letter-spacing="2" transform="translate(80 0)">Novel-to-Comic Drama · AI Pipeline</text><g font-family="-apple-system, BlinkMacSystemFont, 'Segoe UI', Helvetica, Arial, sans-serif" font-weight="600" transform="translate(80 0) translate(0 440)"><rect width="130" height="36" fill="#6366F1" fill-opacity=".15" stroke="#6366F1" stroke-opacity=".5" rx="18"/><text x="65" y="23" fill="#C7D2FE" font-size="13" text-anchor="middle">TAURI · RUST</text><g transform="translate(144 0)"><rect width="150" height="36" fill="#A855F7" fill-opacity=".15" stroke="#A855F7" stroke-opacity=".5" rx="18"/><text x="75" y="23" fill="#D8B4FE" font-size="13" text-anchor="middle">7+ AI MODELS</text></g><g transform="translate(308 0)"><rect width="160" height="36" fill="#EC4899" fill-opacity=".15" stroke="#EC4899" stroke-opacity=".5" rx="18"/><text x="80" y="23" fill="#F9A8D4" font-size="13" text-anchor="middle">QUALITY GATE</text></g><g transform="translate(482 0)"><rect width="165" height="36" fill="#F43F5E" fill-opacity=".15" stroke="#F43F5E" stroke-opacity=".5" rx="18"/><text x="82" y="23" fill="#FDA4AF" font-size="13" text-anchor="middle">10-STEP PIPELINE</text></g></g></g><g transform="translate(820 100)"><rect width="380" height="380" fill="#0B0E2C" stroke="#A855F7" stroke-opacity=".25" stroke-width="2" rx="80"/><g><g stroke="url(#og2)" stroke-linecap="round" stroke-width="4" opacity=".6" transform="translate(60 60) scale(1.1)"><path fill="none" d="M 30 10 Q 20 80 30 150"/><path fill="none" d="M 80 10 Q 80 80 80 150"/><path fill="none" d="M 130 10 Q 140 80 130 150"/><path fill="none" d="M 10 30 Q 80 20 150 30" opacity=".4"/><path fill="none" d="M 10 80 Q 80 80 150 80" opacity=".4"/></g><g fill="url(#og2)" transform="translate(60 60) scale(1.1)"><rect width="16" height="16" x="22" y="22" rx="4"/><rect width="16" height="16" x="72" y="22" rx="4"/><rect width="16" height="16" x="122" y="22" rx="4"/><rect width="16" height="16" x="22" y="72" rx="4"/><rect width="16" height="16" x="72" y="72" opacity=".6" rx="4"/><rect width="16" height="16" x="122" y="72" rx="4"/></g><g transform="translate(60 60) scale(1.1) translate(80 110)"><circle r="22" fill="url(#og2)" opacity=".2"/><circle r="11" fill="url(#og2)"/><circle r="4" fill="#FFF"/></g></g></g><text x="80" y="615" fill="#6B7280" font-family="-apple-system, BlinkMacSystemFont, 'Segoe UI', Helvetica, Arial, sans-serif" font-size="18" font-weight="500">github.com/Agions/story-weaver</text><text x="1200" y="615" fill="#6B7280" font-family="-apple-system, BlinkMacSystemFont, 'Segoe UI', Helvetica, Arial, sans-serif" font-size="18" font-weight="500" text-anchor="end">v2.2.3 · 2026</text></svg>